<?xml version="1.0" encoding="UTF-8" standalone="no"?>
<!DOCTYPE svg PUBLIC "-//W3C//DTD SVG 1.1//EN"
 "http://www.w3.org/Graphics/SVG/1.1/DTD/svg11.dtd">
<!-- Generated by graphviz version 9.0.0 (20230911.1827)
 -->
<!-- Title: g Pages: 1 -->
<svg width="274pt" height="188pt"
 viewBox="0.00 0.00 273.98 188.00" xmlns="http://www.w3.org/2000/svg" xmlns:xlink="http://www.w3.org/1999/xlink">
<g id="graph0" class="graph" transform="scale(1 1) rotate(0) translate(4 184)">
<title>g</title>
<polygon fill="white" stroke="none" points="-4,4 -4,-184 269.98,-184 269.98,4 -4,4"/>
<!-- 4608309456 -->
<g id="node1" class="node">
<title>4608309456</title>
<ellipse fill="orange" stroke="orange" cx="132.99" cy="-18" rx="47.24" ry="18"/>
<text text-anchor="middle" x="132.99" y="-13.8" font-family="Times,serif" font-size="14.00">() float64</text>
</g>
<!-- 4520321424 -->
<g id="node2" class="node">
<title>4520321424</title>
<polygon fill="lightblue" stroke="lightblue" points="159.99,-108 105.99,-108 105.99,-72 159.99,-72 159.99,-108"/>
<text text-anchor="middle" x="132.99" y="-85.8" font-family="Times,serif" font-size="14.00">Add</text>
</g>
<!-- 4520321424&#45;&gt;4608309456 -->
<g id="edge3" class="edge">
<title>4520321424&#45;&gt;4608309456</title>
<path fill="none" stroke="black" d="M132.99,-71.7C132.99,-64.41 132.99,-55.73 132.99,-47.54"/>
<polygon fill="black" stroke="black" points="136.49,-47.62 132.99,-37.62 129.49,-47.62 136.49,-47.62"/>
</g>
<!-- 4523614032 -->
<g id="node3" class="node">
<title>4523614032</title>
<ellipse fill="orange" stroke="orange" cx="61.99" cy="-162" rx="61.99" ry="18"/>
<text text-anchor="middle" x="61.99" y="-157.8" font-family="Times,serif" font-size="14.00">x0: () float64</text>
</g>
<!-- 4523614032&#45;&gt;4520321424 -->
<g id="edge1" class="edge">
<title>4523614032&#45;&gt;4520321424</title>
<path fill="none" stroke="black" d="M78.82,-144.41C87.32,-136.03 97.81,-125.68 107.3,-116.33"/>
<polygon fill="black" stroke="black" points="109.55,-119.02 114.22,-109.51 104.64,-114.04 109.55,-119.02"/>
</g>
<!-- 4520321360 -->
<g id="node4" class="node">
<title>4520321360</title>
<ellipse fill="orange" stroke="orange" cx="203.99" cy="-162" rx="61.99" ry="18"/>
<text text-anchor="middle" x="203.99" y="-157.8" font-family="Times,serif" font-size="14.00">x1: () float64</text>
</g>
<!-- 4520321360&#45;&gt;4520321424 -->
<g id="edge2" class="edge">
<title>4520321360&#45;&gt;4520321424</title>
<path fill="none" stroke="black" d="M187.16,-144.41C178.66,-136.03 168.17,-125.68 158.68,-116.33"/>
<polygon fill="black" stroke="black" points="161.34,-114.04 151.76,-109.51 156.43,-119.02 161.34,-114.04"/>
</g>
</g>
</svg>
